<?xml version="1.0" encoding="utf-8"?>
<!-- Generator: Adobe Illustrator 22.0.1, SVG Export Plug-In . SVG Version: 6.00 Build 0)  -->
<svg version="1.1" id="Isolation_Mode" xmlns="http://www.w3.org/2000/svg" xmlns:xlink="http://www.w3.org/1999/xlink" x="0px"
	 y="0px" viewBox="0 0 51 52" style="enable-background:new 0 0 51 52;" xml:space="preserve">
<style type="text/css">
	.st0{fill:#FFFFFF;}
</style>
<g>
	<path class="st0" d="M50-1H2C0.9-1,0-0.1,0,1v51c0,1.1,0.9,2,2,2h48c1.1,0,2-0.9,2-2V1C52-0.1,51.1-1,50-1z M48,50H4V3h44V50z"/>
	<g>
		<path class="st0" d="M30.6,45.5c-3.3,0-6-2.7-6-6s2.7-6,6-6s6,2.7,6,6S33.9,45.5,30.6,45.5z M30.6,36.5c-1.7,0-3,1.3-3,3
			s1.3,3,3,3s3-1.3,3-3S32.2,36.5,30.6,36.5z"/>
	</g>
	<polygon class="st0" points="43.1,20.7 41.3,18.9 38.6,21.7 35.9,18.9 34.1,20.7 36.8,23.5 34.1,26.2 35.9,28 38.6,25.3 41.3,28 
		43.1,26.2 40.4,23.5 	"/>
	<polygon class="st0" points="19.1,14.8 17.3,13 14.5,15.7 11.7,12.9 9.9,14.7 12.7,17.5 10,20.3 11.8,22.1 14.5,19.3 17.2,22 
		19,20.2 16.3,17.5 	"/>
	<path class="st0" d="M30.2,19l-8.1,0.9l2.2,2.3c-3,1.8-10.7,7.6-10.7,19.7c0,0.8,0.7,1.5,1.5,1.5s1.5-0.7,1.5-1.5
		c0-11.7,8.1-16.6,9.9-17.5l2.4,2.5L30.2,19z"/>
</g>
</svg>
