<?xml version="1.0" encoding="utf-8"?>
<!-- Generator: Adobe Illustrator 22.0.1, SVG Export Plug-In . SVG Version: 6.00 Build 0)  -->
<svg version="1.1" id="Layer_1" xmlns="http://www.w3.org/2000/svg" xmlns:xlink="http://www.w3.org/1999/xlink" x="0px" y="0px"
	 viewBox="0 0 256.5 267.4" style="enable-background:new 0 0 256.5 267.4;" xml:space="preserve">
<g>
	<g>
		<g>
			<g>
				<path d="M105,124.1H49.8c-7.2,0-14.1,6-14.1,13.5v56.5c0,7.4,6.9,13.5,14.1,13.5H105c7.2,0,14.1-6,14.1-13.5v-56.5
					C119.1,130.1,112.2,124.1,105,124.1 M105,194.1H49.8v-56.5H105V194.1z"/>
			</g>
			<g>
				<path d="M199.9,165.4l26.6-41.3h-16.9l-19.7,30.7c-1.4,2.1-3.8,3.5-6.5,3.5H182c-2.7,0-5.1-1.4-6.5-3.5l-19.7-30.7h-16.9
					l26.6,41.5l-28.4,41.9h17.2l21.8-32.2c1.4-2.1,3.8-3.5,6.5-3.5h0.3c2.7,0,5.1,1.4,6.5,3.5l21.9,32.2h17.2L199.9,165.4z"/>
			</g>
			<g>
				<path d="M71.7,47l-7.9,13.4H105v22.3H49.8V26.2h61.3l8-13.5H49.8c-7.2,0-14.1,6-14.1,13.5v56.5c0,7.4,6.9,13.5,14.1,13.5H105
					c7.2,0,14.1-6,14.1-13.5V47H71.7z"/>
			</g>
			<g>
				<path d="M209.6,12.6h-61v83.6h61c7.2,0,14.1-6,14.1-13.5V66.9c0-7.4-4.5-13.5-11.7-13.5c7.2,0,11.7-6,11.7-13.5V26.1
					C223.7,18.7,216.8,12.6,209.6,12.6 M209.6,77.2c0,3.1-2.4,5.5-5.4,5.5h-41.5V60.4h41.5c3,0,5.4,2.5,5.4,5.5V77.2z M209.6,41.4
					c0,3.1-2.4,5.5-5.4,5.5h-41.5V26.1h41.5c3,0,5.4,2.5,5.4,5.5V41.4z"/>
			</g>
		</g>
	</g>
	<g>
		<g>
			<path d="M37.8,248.5c0.7,2.5,2.1,3.6,4.7,3.6c3.1,0,4.7-1.5,4.7-4.5c0-1.4-0.4-2.5-1.2-3.2c-0.8-0.6-0.9-0.7-3.9-1.5
				c-4.3-1.2-6-3.1-6-6.7c0-4,2.5-6.4,6.6-6.4c3.6,0,5.5,1.5,6.3,4.7l-2.4,0.6c-0.7-2.3-1.8-3.2-4-3.2c-2.5,0-3.9,1.5-3.9,4.1
				c0,2.4,1.2,3.7,4.7,4.7c2.9,0.8,3.4,1,4.4,1.8c1.3,1,2,2.7,2,4.9c0,4.4-2.6,6.8-7.3,6.8c-4.2,0-6.3-1.5-7.2-5.2L37.8,248.5z"/>
		</g>
		<g>
			<path d="M76.2,232.4h-5.8v-2.2h14.3v2.2h-5.8v21.6h-2.7V232.4z"/>
		</g>
		<g>
			<path d="M109.3,230.2v16.2c0,2.1,0.2,3.1,0.7,3.9c0.8,1.3,1.9,1.8,3.6,1.8c2.1,0,3.3-0.6,4.1-2.1c0.4-0.8,0.6-1.8,0.6-3.7v-16.2
				h2.7v16.2c0,3-0.3,4.2-1.3,5.5c-1.3,1.7-3.1,2.4-6,2.4c-3,0-5-0.9-6.2-2.8c-0.8-1.2-1-2.4-1-5.1v-16.2H109.3z"/>
		</g>
		<g>
			<path d="M144.7,230.2h6.7c5.3-0.1,7.9,2.6,7.8,7.9v8c0.1,5.3-2.5,8-7.8,7.9h-6.7V230.2z M151.1,251.9c3.7,0.1,5.3-1.8,5.3-6.1
				v-7.3c0-4.3-1.6-6.1-5.3-6.1h-3.7v19.5H151.1z"/>
		</g>
		<g>
			<path d="M182.3,230.2h2.7v23.8h-2.7V230.2z"/>
		</g>
		<g>
			<path d="M208.1,238.1c0-2.9,0.5-4.6,1.7-6c1.3-1.5,3.2-2.2,5.8-2.2c2.8,0,4.8,0.8,6.1,2.6c1,1.3,1.4,2.9,1.4,5.6v8
				c0,2.9-0.5,4.6-1.7,6c-1.3,1.5-3.2,2.2-5.7,2.2c-2.8,0-4.8-0.8-6.1-2.6c-0.9-1.3-1.4-3-1.4-5.6V238.1z M220.3,238.4
				c0-4.4-1.4-6.3-4.7-6.3c-3.3,0-4.7,1.9-4.7,6.3v7.5c0,4.4,1.4,6.3,4.7,6.3c3.3,0,4.7-1.9,4.7-6.3V238.4z"/>
		</g>
	</g>
</g>
</svg>
