<?xml version="1.0" encoding="utf-8"?>
<!-- Generator: Adobe Illustrator 22.0.1, SVG Export Plug-In . SVG Version: 6.00 Build 0)  -->
<svg version="1.1" id="Layer_1" xmlns="http://www.w3.org/2000/svg" xmlns:xlink="http://www.w3.org/1999/xlink" x="0px" y="0px"
	 viewBox="0 0 127.5 129.8" style="enable-background:new 0 0 127.5 129.8;" xml:space="preserve">
<style type="text/css">
	.st0{fill:none;}
	.st1{fill:#FFDD00;}
</style>
<g>
	<path class="st0" d="M115.6,18.2v-6.5c0-2.1-1.6-3.7-3.6-3.7H84.2v14H112C114,21.9,115.6,20.2,115.6,18.2z"/>
	<path class="st0" d="M115.6,34.6c0-2-1.6-3.7-3.6-3.7H84.2v15H112c2,0,3.6-1.7,3.6-3.7V34.6z"/>
	<rect x="8.4" y="82.6" class="st0" width="37" height="37.9"/>
	<path class="st1" d="M45.5,73.6h-37c-4.8,0-9.5,4-9.5,9v37.9c0,5,4.6,9,9.5,9h37c4.8,0,9.5-4,9.5-9V82.6
		C54.9,77.7,50.3,73.6,45.5,73.6z M45.5,120.5h-37V82.6h37V120.5z"/>
	<path class="st1" d="M109.1,101.3l17.8-27.7h-11.4l-13.2,20.6c-1,1.4-2.5,2.4-4.4,2.4h-0.8c-1.8,0-3.4-0.9-4.4-2.4L79.5,73.6H68.2
		l17.8,27.8l-19,28.1h11.5L93.2,108c1-1.4,2.5-2.4,4.4-2.4h0.2c1.8,0,3.4,0.9,4.4,2.4l14.7,21.6h11.6L109.1,101.3z"/>
	<path class="st1" d="M8.4,54.9h37c4.8,0,9.5-4,9.5-9v-24H23.1l-5.3,9h27.7v14.9h-37V7.9h41.1l5.3-9H8.4C3.6-1.1-1,3-1,7.9v37.9
		C-1,50.8,3.6,54.9,8.4,54.9z"/>
	<path class="st1" d="M125,45.9V35.3c0-5-3-9-7.8-9c4.8,0,7.8-4,7.8-9V7.9c0-5-4.6-9-9.5-9H74.7v56.1h40.9
		C120.4,54.9,125,50.9,125,45.9z M84.2,7.9H112c2,0,3.6,1.7,3.6,3.7v6.5c0,2.1-1.6,3.7-3.6,3.7H84.2V7.9z M112,45.9H84.2v-15H112
		c2,0,3.6,1.7,3.6,3.7v7.5C115.6,44.2,114,45.9,112,45.9z"/>
</g>
</svg>
